<svg width="30" height="30" viewBox="0 0 30 30" fill="none" xmlns="http://www.w3.org/2000/svg">
<g clip-path="url(#clip0_381_1212)">
<mask id="mask0_381_1212" style="mask-type:luminance" maskUnits="userSpaceOnUse" x="0" y="0" width="30" height="30">
<path d="M30 0H0V30H30V0Z" fill="white"/>
</mask>
<g mask="url(#mask0_381_1212)">
<path d="M15.0012 5.66122C17.9375 3.02497 22.475 3.11247 25.3037 5.94622C28.1312 8.78122 28.2287 13.2963 25.5987 16.2413L14.9987 26.8563L4.40126 16.2413C1.77126 13.2963 1.87001 8.77373 4.69626 5.94622C7.52751 3.11623 12.0563 3.02122 15.0012 5.66122ZM23.5337 7.71248C21.6587 5.83498 18.6337 5.75873 16.6712 7.52123L15.0025 9.01873L13.3325 7.52248C11.3638 5.75748 8.34501 5.83498 6.46501 7.71497C4.60251 9.57748 4.50876 12.5588 6.22501 14.5288L15 23.3175L23.775 14.53C25.4925 12.5587 25.3987 9.58122 23.5337 7.71248Z" fill="#333333"/>
</g>
</g>
<defs>
<clipPath id="clip0_381_1212">
<rect width="30" height="30" fill="white"/>
</clipPath>
</defs>
</svg>
