<svg width="30" height="30" viewBox="0 0 30 30" fill="none" xmlns="http://www.w3.org/2000/svg">
<g clip-path="url(#clip0_381_1206)">
<mask id="mask0_381_1206" style="mask-type:luminance" maskUnits="userSpaceOnUse" x="0" y="0" width="30" height="30">
<path d="M30 0H0V30H30V0Z" fill="white"/>
</mask>
<g mask="url(#mask0_381_1206)">
<path d="M15 27.5C8.09625 27.5 2.5 21.9037 2.5 15C2.5 8.09625 8.09625 2.5 15 2.5C21.9037 2.5 27.5 8.09625 27.5 15C27.5 21.9037 21.9037 27.5 15 27.5ZM8.76625 22.82C10.5357 24.2346 12.7346 25.0036 15 25C17.4625 25 19.7162 24.11 21.4587 22.635C20.6446 21.7996 19.6714 21.1361 18.5963 20.6835C17.5212 20.2309 16.3664 19.9985 15.2 20C13.9907 19.9986 12.7944 20.2486 11.6868 20.734C10.5793 21.2195 9.58472 21.9299 8.76625 22.82ZM7.02 21.025C8.07056 19.9101 9.33834 19.0221 10.7452 18.4159C12.152 17.8096 13.6681 17.498 15.2 17.5C16.6771 17.4981 18.14 17.788 19.5046 18.353C20.8694 18.918 22.1091 19.747 23.1525 20.7925C24.2226 19.2864 24.8545 17.5133 24.9782 15.6699C25.1019 13.8265 24.7125 11.9849 23.8531 10.3493C22.9938 8.71378 21.6981 7.34827 20.11 6.40431C18.5217 5.46034 16.7031 4.9748 14.8557 5.00156C13.0084 5.02834 11.2046 5.56635 9.6444 6.55595C8.08422 7.54554 6.8287 8.948 6.01711 10.6077C5.20553 12.2675 4.86961 14.1196 5.04665 15.9586C5.22368 17.7978 5.90671 19.5505 7.02 21.025ZM15 16.25C13.6739 16.25 12.4022 15.7232 11.4645 14.7855C10.5268 13.8479 10 12.5761 10 11.25C10 9.92391 10.5268 8.65215 11.4645 7.71446C12.4022 6.77679 13.6739 6.25 15 6.25C16.3261 6.25 17.5979 6.77679 18.5355 7.71446C19.4732 8.65215 20 9.92391 20 11.25C20 12.5761 19.4732 13.8479 18.5355 14.7855C17.5979 15.7232 16.3261 16.25 15 16.25ZM15 13.75C15.663 13.75 16.2989 13.4866 16.7677 13.0177C17.2366 12.5489 17.5 11.913 17.5 11.25C17.5 10.587 17.2366 9.95108 16.7677 9.48224C16.2989 9.01339 15.663 8.75 15 8.75C14.337 8.75 13.7011 9.01339 13.2323 9.48224C12.7634 9.95108 12.5 10.587 12.5 11.25C12.5 11.913 12.7634 12.5489 13.2323 13.0177C13.7011 13.4866 14.337 13.75 15 13.75Z" fill="#333333"/>
</g>
</g>
<defs>
<clipPath id="clip0_381_1206">
<rect width="30" height="30" fill="white"/>
</clipPath>
</defs>
</svg>
