<svg width="30" height="30" viewBox="0 0 30 30" fill="none" xmlns="http://www.w3.org/2000/svg">
<g clip-path="url(#clip0_381_1200)">
<mask id="mask0_381_1200" style="mask-type:luminance" maskUnits="userSpaceOnUse" x="0" y="0" width="30" height="30">
<path d="M30 0H0V30H30V0Z" fill="white"/>
</mask>
<g mask="url(#mask0_381_1200)">
<path d="M7.5 11.25H24.9225L25.5475 8.75H10V6.25H27.15C27.34 6.25 27.5275 6.29332 27.6982 6.37667C27.869 6.46001 28.0185 6.58119 28.1354 6.73099C28.2524 6.88077 28.3335 7.05525 28.3729 7.24114C28.4122 7.42703 28.4086 7.61944 28.3625 7.80375L25.2375 20.3037C25.1698 20.574 25.0138 20.814 24.794 20.9854C24.5744 21.1569 24.3036 21.25 24.025 21.25H6.25C5.91847 21.25 5.60054 21.1182 5.36611 20.8839C5.1317 20.6495 5 20.3315 5 20V5H2.5V2.5H6.25C6.58152 2.5 6.89946 2.6317 7.13389 2.86611C7.3683 3.10054 7.5 3.41848 7.5 3.75V11.25ZM7.5 28.75C6.83696 28.75 6.20108 28.4866 5.73224 28.0177C5.26339 27.5489 5 26.913 5 26.25C5 25.587 5.26339 24.9511 5.73224 24.4823C6.20108 24.0134 6.83696 23.75 7.5 23.75C8.16304 23.75 8.79892 24.0134 9.26776 24.4823C9.73661 24.9511 10 25.587 10 26.25C10 26.913 9.73661 27.5489 9.26776 28.0177C8.79892 28.4866 8.16304 28.75 7.5 28.75ZM22.5 28.75C21.837 28.75 21.2011 28.4866 20.7323 28.0177C20.2634 27.5489 20 26.913 20 26.25C20 25.587 20.2634 24.9511 20.7323 24.4823C21.2011 24.0134 21.837 23.75 22.5 23.75C23.163 23.75 23.7989 24.0134 24.2677 24.4823C24.7366 24.9511 25 25.587 25 26.25C25 26.913 24.7366 27.5489 24.2677 28.0177C23.7989 28.4866 23.163 28.75 22.5 28.75Z" fill="#333333"/>
</g>
</g>
<defs>
<clipPath id="clip0_381_1200">
<rect width="30" height="30" fill="white"/>
</clipPath>
</defs>
</svg>
